<?xml version="1.0" encoding="UTF-8"?>
<svg version="1.1" xmlns="http://www.w3.org/2000/svg" width="253" height="90">
<path d="M0 0 C1.02631531 -0.00852997 2.05263062 -0.01705994 3.11004639 -0.02584839 C4.79798309 -0.02448883 4.79798309 -0.02448883 6.52001953 -0.02310181 C8.29835175 -0.03317764 8.29835175 -0.03317764 10.11260986 -0.04345703 C13.3646359 -0.05921424 16.61650876 -0.06581281 19.86856842 -0.0670886 C22.58242595 -0.06898747 25.29625895 -0.0763446 28.01010704 -0.08343279 C34.4112103 -0.09971778 40.81225731 -0.10460154 47.21337891 -0.10317993 C53.82035909 -0.10197749 60.42701314 -0.12309916 67.03391075 -0.15466726 C72.70447517 -0.18079769 78.37493283 -0.19154864 84.04555702 -0.19026911 C87.43329966 -0.18975864 90.82075231 -0.19548824 94.20843506 -0.21662521 C97.98445032 -0.23613264 101.75961678 -0.23050688 105.53564453 -0.21841431 C106.66093567 -0.22965332 107.78622681 -0.24089233 108.94561768 -0.25247192 C109.97193298 -0.24408295 110.99824829 -0.23569397 112.05566406 -0.22705078 C112.94867218 -0.22814032 113.8416803 -0.22922985 114.76174927 -0.2303524 C117.02783203 0.26742554 117.02783203 0.26742554 118.8147831 2.07538414 C120.62185762 5.34086013 120.44561 8.54940853 120.41601562 12.18539429 C120.42390106 13.37632187 120.42390106 13.37632187 120.4319458 14.59130859 C120.44513714 17.21271505 120.43641096 19.83351303 120.42626953 22.45492554 C120.42829052 24.27808753 120.43120217 26.10124873 120.43496704 27.92440796 C120.43938921 31.74422914 120.43296278 35.56383978 120.41894531 39.38363647 C120.40185347 44.27983865 120.41169523 49.17554749 120.4296627 54.07173157 C120.44050343 57.83610755 120.43705288 61.60036658 120.42927933 65.36474609 C120.42727812 67.17006488 120.42973382 68.97539429 120.43671799 70.78070068 C120.44433724 73.3039055 120.43272202 75.82631146 120.41601562 78.34945679 C120.42208832 79.09555206 120.42816101 79.84164734 120.43441772 80.61035156 C120.38242231 84.84940144 120.02982818 87.22943115 117.02783203 90.26742554 C114.76174927 90.76799679 114.76174927 90.76799679 112.05566406 90.76863098 C111.02934875 90.77846512 110.00303345 90.78829926 108.94561768 90.7984314 C107.82032654 90.78876343 106.6950354 90.77909546 105.53564453 90.76913452 C103.75731232 90.777239 103.75731232 90.777239 101.9430542 90.7855072 C98.69083404 90.79588132 95.43927279 90.7882803 92.18709564 90.77179599 C88.78520788 90.75795491 85.38335106 90.76440448 81.98144531 90.76792908 C76.26830527 90.77063197 70.55537523 90.75714907 64.84228516 90.73397827 C58.2353359 90.70736784 51.62873779 90.70562103 45.02175331 90.71736664 C38.66840747 90.72814262 32.31518877 90.72195882 25.96185303 90.70781136 C23.25694782 90.70204993 20.55213559 90.70213541 17.847229 90.70687675 C14.07127487 90.70977715 10.29590054 90.69333708 6.52001953 90.67147827 C5.39472839 90.67597992 4.26943726 90.68048157 3.11004639 90.68511963 C2.08373108 90.675215 1.05741577 90.66531036 0 90.65510559 C-1.33951218 90.65146075 -1.33951218 90.65146075 -2.70608521 90.64774227 C-5.46558126 90.18461597 -6.35726198 89.52948025 -7.97216797 87.26742554 C-8.26828485 84.4891385 -8.38196349 81.93492124 -8.36035156 79.15585327 C-8.36560852 78.32957428 -8.37086548 77.50329529 -8.37628174 76.65197754 C-8.38949629 73.91813307 -8.38073943 71.18486977 -8.37060547 68.45101929 C-8.37262559 66.5543761 -8.37553652 64.65773366 -8.37930298 62.76109314 C-8.38372814 58.78567105 -8.37728837 54.8104511 -8.36328125 50.83505249 C-8.34617761 45.73124601 -8.35603679 40.62791237 -8.37399864 35.52412319 C-8.38482136 31.60799067 -8.38139731 27.6919709 -8.37361526 23.77583504 C-8.37160967 21.8935039 -8.37408507 20.01116262 -8.38105392 18.12884331 C-8.38864491 15.50215261 -8.37709826 12.87623607 -8.36035156 10.24960327 C-8.36642426 9.46669418 -8.37249695 8.6837851 -8.37875366 7.87715149 C-8.3531189 5.7146759 -8.3531189 5.7146759 -7.97216797 2.26742554 C-4.70775538 0.09115048 -3.77867512 0.01418234 0 0 Z " fill="#F08924" transform="translate(7.97216796875,-0.267425537109375)"/>
<path d="M0 0 C1.72974441 0.00015918 3.45949355 0.0058569 5.18920898 0.01586914 C6.09783188 0.01728409 7.00645477 0.01869904 7.94261169 0.02015686 C10.85687494 0.02577346 13.77106254 0.03832874 16.68530273 0.05102539 C18.65600475 0.05603825 20.62670797 0.06060153 22.59741211 0.06469727 C27.43923832 0.07574828 32.28100768 0.09302401 37.12280273 0.11352539 C36.34458509 5.64663802 35.36391975 10.23037209 31.12280273 14.11352539 C27.34434461 15.23041402 23.72792569 15.18871969 19.81030273 15.11352539 C18.78356445 15.12512695 17.75682617 15.13672852 16.69897461 15.14868164 C14.17155774 15.1721925 11.64975773 15.15931393 9.12280273 15.11352539 C9.12280273 16.76352539 9.12280273 18.41352539 9.12280273 20.11352539 C16.05280273 20.44352539 22.98280273 20.77352539 30.12280273 21.11352539 C29.09584241 27.27528734 28.25409026 31.34818481 23.12280273 35.11352539 C18.43563586 36.08849781 13.89927971 36.2182153 9.12280273 36.11352539 C9.12280273 37.76352539 9.12280273 39.41352539 9.12280273 41.11352539 C21.99280273 41.60852539 21.99280273 41.60852539 35.12280273 42.11352539 C33.95715888 47.94174466 32.86897303 52.28825381 28.12280273 56.11352539 C22.65166148 57.27740172 17.36861548 57.00836402 11.81030273 56.73852539 C10.30453639 56.70192184 8.79866687 56.66932944 7.29272461 56.64086914 C-3.61467827 56.37604438 -3.61467827 56.37604438 -4.87719727 55.11352539 C-4.97594896 53.43097304 -5.00518631 51.74428511 -5.0065918 50.05883789 C-5.00974396 48.98102051 -5.01289612 47.90320313 -5.0161438 46.79272461 C-5.01411957 45.61983887 -5.01209534 44.44695313 -5.01000977 43.23852539 C-5.01096649 42.04372559 -5.01192322 40.84892578 -5.01290894 39.61791992 C-5.01359098 37.08585559 -5.01173504 34.55378952 -5.00756836 32.02172852 C-5.00222047 28.13041279 -5.00751259 24.2392125 -5.01391602 20.34790039 C-5.01325524 17.89477513 -5.01197408 15.44164995 -5.01000977 12.98852539 C-5.012034 11.81563965 -5.01405823 10.64275391 -5.0161438 9.43432617 C-5.01299164 8.35650879 -5.00983948 7.27869141 -5.0065918 6.16821289 C-5.0057962 5.21414551 -5.00500061 4.26007812 -5.00418091 3.27709961 C-4.78081735 -0.52861603 -4.01884665 0.11767292 0 0 Z " fill="#FEFCFA" transform="translate(24.877197265625,18.886474609375)"/>
<path d="M0 0 C1.75510626 0.04517294 3.51032352 0.08623267 5.265625 0.12304688 C9.55483126 0.22195456 13.83869825 0.37706245 18.125 0.5625 C17.62945572 4.16550666 17.13665889 7.08781232 15.2265625 10.19921875 C14.83452637 10.85027588 14.44249023 11.50133301 14.03857422 12.17211914 C13.61334473 12.85781982 13.18811523 13.54352051 12.75 14.25 C11.84805988 15.74164461 10.94705584 17.23385554 10.046875 18.7265625 C9.57314453 19.50676758 9.09941406 20.28697266 8.61132812 21.09082031 C6.01823068 25.40299483 3.51287278 29.76576476 1 34.125 C-1.413125 38.3015625 -1.413125 38.3015625 -3.875 42.5625 C3.385 42.5625 10.645 42.5625 18.125 42.5625 C16.04718476 52.9515762 16.04718476 52.9515762 11.125 56.5625 C4.69918316 58.12886171 -2.2044585 57.40120517 -8.75 57.125 C-10.60146582 57.07983045 -12.45303676 57.03877015 -14.3046875 57.00195312 C-18.83072542 56.90301443 -23.35171141 56.74788068 -27.875 56.5625 C-27.875 52.06103905 -26.99286343 50.50868275 -24.8046875 46.65234375 C-24.48597687 46.08479874 -24.16726624 45.51725372 -23.83889771 44.93251038 C-22.817183 43.11706651 -21.783972 41.30848557 -20.75 39.5 C-20.07732811 38.31099736 -19.40544541 37.12154787 -18.734375 35.93164062 C-17.41800458 33.5983819 -16.09822882 31.26717864 -14.77636719 28.93701172 C-12.09182424 24.17253398 -9.48002981 19.37084942 -6.875 14.5625 C-13.145 14.5625 -19.415 14.5625 -25.875 14.5625 C-22.68119376 -1.40653119 -14.17849728 -0.63159724 0 0 Z " fill="#FEFBF9" transform="translate(89.875,18.4375)"/>
<path d="M0 0 C1.32 2.31 2.64 4.62 4 7 C4.66 4.69 5.32 2.38 6 0 C8.31 0.33 10.62 0.66 13 1 C13.02886751 5.14581887 13.04675327 9.29161216 13.0625 13.4375 C13.07087891 14.62150391 13.07925781 15.80550781 13.08789062 17.02539062 C13.09272461 18.71245117 13.09272461 18.71245117 13.09765625 20.43359375 C13.10551147 21.99678345 13.10551147 21.99678345 13.11352539 23.59155273 C13 26 13 26 12 27 C9.66702567 27.04092937 7.33294775 27.04241723 5 27 C3.68 24.69 2.36 22.38 1 20 C0.34 22.31 -0.32 24.62 -1 27 C-2.99954746 27.04254356 -5.00041636 27.04080783 -7 27 C-8 26 -8 26 -8.11352539 23.59155273 C-8.10828857 22.54942627 -8.10305176 21.5072998 -8.09765625 20.43359375 C-8.09443359 19.30888672 -8.09121094 18.18417969 -8.08789062 17.02539062 C-8.07951172 15.84138672 -8.07113281 14.65738281 -8.0625 13.4375 C-8.05798828 12.24962891 -8.05347656 11.06175781 -8.04882812 9.83789062 C-8.03699675 6.89187774 -8.02051287 3.94596319 -8 1 C-5.29120665 -0.35439668 -2.99066732 -0.06501451 0 0 Z " fill="#FFFEFE" transform="translate(223,32)"/>
<path d="M0 0 C1.17369141 0.10054687 1.17369141 0.10054687 2.37109375 0.203125 C5.00509279 0.86045096 5.94247662 1.58996883 7.5625 3.75 C8.43690552 6.56221665 8.69075568 9.10675029 8.6953125 12.04296875 C8.69724609 13.2350293 8.69724609 13.2350293 8.69921875 14.45117188 C8.69535156 15.27166016 8.69148438 16.09214844 8.6875 16.9375 C8.69330078 18.18563477 8.69330078 18.18563477 8.69921875 19.45898438 C8.68917092 25.62332908 8.68917092 25.62332908 7.5625 26.75 C5.22952567 26.79092937 2.89544775 26.79241723 0.5625 26.75 C0.5625 25.1 0.5625 23.45 0.5625 21.75 C-0.7575 21.75 -2.0775 21.75 -3.4375 21.75 C-3.4375 23.4 -3.4375 25.05 -3.4375 26.75 C-5.7475 26.75 -8.0575 26.75 -10.4375 26.75 C-10.55377503 23.16694008 -10.6247736 19.58436583 -10.6875 16 C-10.72101563 14.98421875 -10.75453125 13.9684375 -10.7890625 12.921875 C-10.88830252 5.37963328 -10.88830252 5.37963328 -8.546875 2.109375 C-5.3152383 0.02676469 -3.80776161 -0.37514893 0 0 Z M-2.4375 7.75 C-3.73383621 8.81645115 -3.73383621 8.81645115 -3.5 11.3125 C-3.479375 12.116875 -3.45875 12.92125 -3.4375 13.75 C-2.1175 13.75 -0.7975 13.75 0.5625 13.75 C0.5625 11.77 0.5625 9.79 0.5625 7.75 C-0.4275 7.75 -1.4175 7.75 -2.4375 7.75 Z " fill="#FFFEFE" transform="translate(174.4375,63.25)"/>
<path d="M0 0 C3.04933997 0.6269671 4.3535139 1.8975398 6.08984375 4.4296875 C7.02275244 7.22841356 7.21843822 8.94957695 7.22265625 11.84375 C7.22458984 13.10832031 7.22458984 13.10832031 7.2265625 14.3984375 C7.22269531 15.275 7.21882813 16.1515625 7.21484375 17.0546875 C7.22064453 18.38113281 7.22064453 18.38113281 7.2265625 19.734375 C7.22527344 20.57484375 7.22398437 21.4153125 7.22265625 22.28125 C7.22152832 23.05291504 7.22040039 23.82458008 7.21923828 24.61962891 C7.08984375 26.4296875 7.08984375 26.4296875 6.08984375 27.4296875 C3.08984375 27.5546875 3.08984375 27.5546875 0.08984375 27.4296875 C-0.91015625 26.4296875 -0.91015625 26.4296875 -0.97265625 23.8671875 C-0.95203125 23.0628125 -0.93140625 22.2584375 -0.91015625 21.4296875 C-2.23015625 21.4296875 -3.55015625 21.4296875 -4.91015625 21.4296875 C-4.88953125 22.2340625 -4.86890625 23.0384375 -4.84765625 23.8671875 C-4.91015625 26.4296875 -4.91015625 26.4296875 -5.91015625 27.4296875 C-8.41015625 27.5546875 -8.41015625 27.5546875 -10.91015625 27.4296875 C-13.27766467 25.06217908 -12.2387822 19.35420171 -12.28515625 16.1796875 C-12.34123047 14.74689453 -12.34123047 14.74689453 -12.3984375 13.28515625 C-12.45713529 8.59585472 -12.45733958 6.19650812 -9.671875 2.29296875 C-6.10474955 -0.1137057 -4.16877484 -0.23583751 0 0 Z M-4.91015625 8.4296875 C-4.91015625 10.4096875 -4.91015625 12.3896875 -4.91015625 14.4296875 C-3.59015625 14.4296875 -2.27015625 14.4296875 -0.91015625 14.4296875 C-0.91015625 12.4496875 -0.91015625 10.4696875 -0.91015625 8.4296875 C-2.23015625 8.4296875 -3.55015625 8.4296875 -4.91015625 8.4296875 Z " fill="#FFFEFE" transform="translate(196.91015625,31.5703125)"/>
<path d="M0 0 C4.41123512 0.04005012 7.30578813 0.25020257 10.75 3.25 C13.15672854 6.86009281 13.04795107 9.51975281 13 13.6875 C13.00515625 15.00621094 13.0103125 16.32492188 13.015625 17.68359375 C12.63053304 22.85401965 12.63053304 22.85401965 10.75 25.25 C7.14563671 27.21997097 4.0637731 27.49790744 0 27.4375 C-0.96421875 27.43105469 -1.9284375 27.42460938 -2.921875 27.41796875 C-5.25 27.25 -5.25 27.25 -6.25 26.25 C-6.34959621 24.40840977 -6.38080411 22.56303033 -6.3828125 20.71875 C-6.38410156 19.59855469 -6.38539063 18.47835937 -6.38671875 17.32421875 C-6.38285156 16.14472656 -6.37898437 14.96523438 -6.375 13.75 C-6.37886719 12.57050781 -6.38273438 11.39101563 -6.38671875 10.17578125 C-6.38542969 9.05558594 -6.38414062 7.93539062 -6.3828125 6.78125 C-6.38168457 5.74548828 -6.38055664 4.70972656 -6.37939453 3.64257812 C-6.14227641 -0.74187017 -3.87946763 0.06223745 0 0 Z M0.75 8.25 C0.75 11.88 0.75 15.51 0.75 19.25 C2.07 19.25 3.39 19.25 4.75 19.25 C4.75 15.62 4.75 11.99 4.75 8.25 C3.43 8.25 2.11 8.25 0.75 8.25 Z " fill="#FFFEFE" transform="translate(149.25,31.75)"/>
<path d="M0 0 C4.93201909 0.06332122 8.3470354 0.41577433 12.0625 3.875 C13.73647259 7.13484135 13.56759204 9.56695076 13.25 13.1875 C12.858125 14.05375 12.46625 14.92 12.0625 15.8125 C11.794375 16.59625 11.52625 17.38 11.25 18.1875 C12.20093297 19.88264137 13.20107762 21.55118108 14.25 23.1875 C13.9375 25.5 13.9375 25.5 13.25 27.1875 C11 27.5625 11 27.5625 8.25 27.1875 C4.25 22.21452703 4.25 22.21452703 4.25 19.1875 C3.26 19.1875 2.27 19.1875 1.25 19.1875 C1.270625 20.321875 1.29125 21.45625 1.3125 22.625 C1.25 26.1875 1.25 26.1875 0.25 27.1875 C-2.25 27.3125 -2.25 27.3125 -4.75 27.1875 C-6.49545605 25.44204395 -5.8802316 23.02625783 -5.8828125 20.65625 C-5.88410156 19.53605469 -5.88539063 18.41585937 -5.88671875 17.26171875 C-5.88285156 16.08222656 -5.87898437 14.90273438 -5.875 13.6875 C-5.87886719 12.50800781 -5.88273438 11.32851563 -5.88671875 10.11328125 C-5.88542969 8.99308594 -5.88414062 7.87289062 -5.8828125 6.71875 C-5.88168457 5.68298828 -5.88055664 4.64722656 -5.87939453 3.58007812 C-5.65122353 -0.6389329 -3.75804387 0.02779618 0 0 Z M1.25 8.1875 C1.25 9.1775 1.25 10.1675 1.25 11.1875 C2.9 11.1875 4.55 11.1875 6.25 11.1875 C6.25 10.1975 6.25 9.2075 6.25 8.1875 C4.6 8.1875 2.95 8.1875 1.25 8.1875 Z " fill="#FEFEFE" transform="translate(169.75,31.8125)"/>
<path d="M0 0 C0.74886475 0.00523682 1.49772949 0.01047363 2.26928711 0.01586914 C3.07817383 0.0190918 3.88706055 0.02231445 4.72045898 0.02563477 C5.5705957 0.03401367 6.42073242 0.04239258 7.29663086 0.05102539 C8.15063477 0.05553711 9.00463867 0.06004883 9.88452148 0.06469727 C12.00108749 0.07652166 14.11761771 0.0944577 16.23413086 0.11352539 C16.23413086 2.42352539 16.23413086 4.73352539 16.23413086 7.11352539 C12.60413086 7.11352539 8.97413086 7.11352539 5.23413086 7.11352539 C5.23413086 7.77352539 5.23413086 8.43352539 5.23413086 9.11352539 C6.93569336 9.08258789 6.93569336 9.08258789 8.67163086 9.05102539 C12.23413086 9.11352539 12.23413086 9.11352539 13.23413086 10.11352539 C13.35913086 13.11352539 13.35913086 13.11352539 13.23413086 16.11352539 C12.23413086 17.11352539 12.23413086 17.11352539 8.67163086 17.17602539 C7.53725586 17.15540039 6.40288086 17.13477539 5.23413086 17.11352539 C5.23413086 17.77352539 5.23413086 18.43352539 5.23413086 19.11352539 C8.86413086 19.11352539 12.49413086 19.11352539 16.23413086 19.11352539 C16.23413086 21.42352539 16.23413086 23.73352539 16.23413086 26.11352539 C9.96413086 26.11352539 3.69413086 26.11352539 -2.76586914 26.11352539 C-2.79269364 21.96764957 -2.81262229 17.82194501 -2.82836914 13.67602539 C-2.83674805 12.49202148 -2.84512695 11.30801758 -2.85375977 10.08813477 C-2.85698242 8.96342773 -2.86020508 7.8387207 -2.86352539 6.67993164 C-2.86876221 5.63780518 -2.87399902 4.59567871 -2.87939453 3.52197266 C-2.72162907 0.17496993 -2.72162907 0.17496993 0 0 Z " fill="#FFFEFE" transform="translate(223.765869140625,63.886474609375)"/>
<path d="M0 0 C2.74273522 0.47677453 4.23919182 1.28129783 6.08984375 3.36328125 C7.28367302 6.94476906 7.33187736 9.96276651 7.40234375 13.73828125 C7.43972656 15.04539062 7.47710937 16.3525 7.515625 17.69921875 C7.03015915 21.87689732 6.04057029 23.43992694 3.08984375 26.36328125 C0.06547036 27.87546795 -2.57257159 27.53591494 -5.91015625 27.36328125 C-9.29047214 26.1756027 -9.84232442 25.465029 -11.91015625 22.36328125 C-12.18503447 19.52190853 -12.32604924 16.830804 -12.34765625 13.98828125 C-12.38052734 13.23289062 -12.41339844 12.4775 -12.44726562 11.69921875 C-12.48751969 7.51279566 -12.249835 5.81894786 -9.66796875 2.35546875 C-6.09661621 -0.22440348 -4.24355893 -0.24712906 0 0 Z M-3.91015625 7.36328125 C-5.19628301 8.42307058 -5.19628301 8.42307058 -5.0078125 10.8671875 C-4.99621094 11.87652344 -4.98460937 12.88585937 -4.97265625 13.92578125 C-4.96363281 14.93769531 -4.95460937 15.94960937 -4.9453125 16.9921875 C-4.93371094 17.77464844 -4.92210937 18.55710937 -4.91015625 19.36328125 C-2.96412351 19.95398139 -2.96412351 19.95398139 -0.91015625 20.36328125 C0.37597051 19.30349192 0.37597051 19.30349192 0.1875 16.859375 C0.17589844 15.85003906 0.16429687 14.84070313 0.15234375 13.80078125 C0.14332031 12.78886719 0.13429687 11.77695313 0.125 10.734375 C0.11339844 9.95191406 0.10179687 9.16945313 0.08984375 8.36328125 C-1.85618899 7.77258111 -1.85618899 7.77258111 -3.91015625 7.36328125 Z " fill="#F08924" transform="translate(154.91015625,-0.36328125)"/>
<path d="M0 0 C2.31 0 4.62 0 7 0 C7.99 3.63 8.98 7.26 10 11 C10.99 7.37 11.98 3.74 13 0 C15.31 0 17.62 0 20 0 C19.35343144 8.89031769 17.12977433 17.37193748 15 26 C11.7 26 8.4 26 5 26 C4.15783413 22.79375423 3.32604218 19.58540177 2.5 16.375 C2.14228516 15.01955078 2.14228516 15.01955078 1.77734375 13.63671875 C0.59037942 8.99060123 -0.3215738 4.83968572 0 0 Z " fill="#FFFEFE" transform="translate(200,64)"/>
<path d="M0 0 C2.31 0 4.62 0 7 0 C7.99 3.63 8.98 7.26 10 11 C10.99 7.37 11.98 3.74 13 0 C15.31 0 17.62 0 20 0 C19.35343144 8.89031769 17.12977433 17.37193748 15 26 C11.7 26 8.4 26 5 26 C4.15969197 22.60575577 3.32753336 19.20985991 2.5 15.8125 C2.26152344 14.85279297 2.02304688 13.89308594 1.77734375 12.90429688 C1.43896484 11.50727539 1.43896484 11.50727539 1.09375 10.08203125 C0.88427734 9.22843018 0.67480469 8.3748291 0.45898438 7.49536133 C-0.01093734 4.94053693 -0.08117627 2.59155241 0 0 Z " fill="#FFFEFE" transform="translate(143,64)"/>
<path d="M0 0 C2.31 0 4.62 0 7 0 C7 6.27 7 12.54 7 19 C10.3 19 13.6 19 17 19 C17 21.31 17 23.62 17 26 C11.39 26 5.78 26 0 26 C0 17.42 0 8.84 0 0 Z " fill="#FFFFFE" transform="translate(185,64)"/>
<path d="M0 0 C1.98 0 3.96 0 6 0 C7 1 7 1 7.11352539 2.76586914 C7.10828857 3.51473389 7.10305176 4.26359863 7.09765625 5.03515625 C7.09282227 6.24848633 7.09282227 6.24848633 7.08789062 7.48632812 C7.07951172 8.33646484 7.07113281 9.18660156 7.0625 10.0625 C7.05798828 10.91650391 7.05347656 11.77050781 7.04882812 12.65039062 C7.03700373 14.76695663 7.01906769 16.88348685 7 19 C10.3 19 13.6 19 17 19 C17 21.31 17 23.62 17 26 C11.39 26 5.78 26 0 26 C0 17.42 0 8.84 0 0 Z " fill="#EF8923" transform="translate(174,0)"/>
<path d="M0 0 C2.5 0.125 2.5 0.125 3.5 1.125 C3.59959621 2.96659023 3.63080411 4.81196967 3.6328125 6.65625 C3.63410156 7.77644531 3.63539063 8.89664063 3.63671875 10.05078125 C3.63285156 11.23027344 3.62898437 12.40976562 3.625 13.625 C3.62886719 14.80449219 3.63273438 15.98398437 3.63671875 17.19921875 C3.63542969 18.31941406 3.63414062 19.43960938 3.6328125 20.59375 C3.63168457 21.62951172 3.63055664 22.66527344 3.62939453 23.73242188 C3.5 26.125 3.5 26.125 2.5 27.125 C0 27.25 0 27.25 -2.5 27.125 C-4.24545605 25.37954395 -3.6302316 22.96375783 -3.6328125 20.59375 C-3.63410156 19.47355469 -3.63539063 18.35335937 -3.63671875 17.19921875 C-3.63285156 16.01972656 -3.62898437 14.84023438 -3.625 13.625 C-3.62886719 12.44550781 -3.63273438 11.26601563 -3.63671875 10.05078125 C-3.63542969 8.93058594 -3.63414062 7.81039062 -3.6328125 6.65625 C-3.63168457 5.62048828 -3.63055664 4.58472656 -3.62939453 3.51757812 C-3.45137181 0.22583731 -3.30058218 0.16502911 0 0 Z " fill="#FFFEFE" transform="translate(209.5,31.875)"/>
<path d="M0 0 C2.5 0.125 2.5 0.125 3.5 1.125 C3.58737645 2.97869611 3.60698153 4.83567541 3.59765625 6.69140625 C3.59282227 8.3784668 3.59282227 8.3784668 3.58789062 10.09960938 C3.57951172 11.28361328 3.57113281 12.46761719 3.5625 13.6875 C3.55798828 14.87537109 3.55347656 16.06324219 3.54882812 17.28710938 C3.53699675 20.23312226 3.52051287 23.17903681 3.5 26.125 C1.19 26.125 -1.12 26.125 -3.5 26.125 C-3.52886751 21.97918113 -3.54675327 17.83338784 -3.5625 13.6875 C-3.57087891 12.50349609 -3.57925781 11.31949219 -3.58789062 10.09960938 C-3.59111328 8.97490234 -3.59433594 7.85019531 -3.59765625 6.69140625 C-3.60289307 5.64927979 -3.60812988 4.60715332 -3.61352539 3.53344727 C-3.45773982 0.22844794 -3.31035851 0.16551793 0 0 Z " fill="#F08823" transform="translate(167.5,-0.125)"/>
<path d="M0 0 C2.61580479 0.3269756 4.64078137 0.82039068 7 2 C7.1875 4.875 7.1875 4.875 7 8 C4 10 4 10 1.4375 9.75 C-1 9 -1 9 -3 7 C-2.67028521 3.70285207 -2.3773161 2.3773161 0 0 Z M-1 4 C0 7 0 7 0 7 Z M4 4 C5 6 5 6 5 6 Z " fill="#FFFEFE" transform="translate(240,30)"/>
</svg>
